<svg width="600" height="320" viewBox="0 0 600 320" fill="none" xmlns="http://www.w3.org/2000/svg">
  <defs>
    <linearGradient id="bgGrad2" x1="0%" y1="0%" x2="100%" y2="100%">
      <stop offset="0%" style="stop-color:#e8f0ec;stop-opacity:1" />
      <stop offset="100%" style="stop-color:#d4e5dc;stop-opacity:1" />
    </linearGradient>
    <linearGradient id="boxGrad1" x1="0%" y1="0%" x2="0%" y2="100%">
      <stop offset="0%" style="stop-color:#ffffff;stop-opacity:1" />
      <stop offset="100%" style="stop-color:#f8f9fa;stop-opacity:1" />
    </linearGradient>
  </defs>

  <rect x="0" y="0" width="600" height="320" rx="16" fill="url(#bgGrad2)"/>

  <!-- Connections -->
  <line x1="220" y1="100" x2="260" y2="100" stroke="#4a6b5c" stroke-width="2" opacity="0.4"/>
  <line x1="220" y1="190" x2="260" y2="190" stroke="#3e5469" stroke-width="2" opacity="0.4"/>
  <line x1="420" y1="100" x2="460" y2="140" stroke="#2d6a5f" stroke-width="2" opacity="0.4"/>
  <line x1="420" y1="190" x2="460" y2="180" stroke="#52606d" stroke-width="2" opacity="0.4"/>

  <!-- Boxes -->
  <rect x="60" y="70" width="160" height="60" rx="12" fill="url(#boxGrad1)" stroke="#4a6b5c" stroke-width="2"/>
  <rect x="60" y="160" width="160" height="60" rx="12" fill="url(#boxGrad1)" stroke="#3e5469" stroke-width="2"/>
  <rect x="260" y="70" width="160" height="60" rx="12" fill="url(#boxGrad1)" stroke="#2d6a5f" stroke-width="2"/>
  <rect x="260" y="160" width="160" height="60" rx="12" fill="url(#boxGrad1)" stroke="#52606d" stroke-width="2"/>
  <rect x="460" y="115" width="90" height="90" rx="14" fill="url(#boxGrad1)" stroke="#4a6b5c" stroke-width="2.5"/>

  <!-- Labels -->
  <text x="78" y="105" fill="#1a2332" font-size="13" font-weight="600" font-family="-apple-system, sans-serif">Ontology Studio</text>
  <text x="84" y="195" fill="#1a2332" font-size="13" font-weight="600" font-family="-apple-system, sans-serif">Agent Builder</text>
  <text x="270" y="105" fill="#1a2332" font-size="13" font-weight="600" font-family="-apple-system, sans-serif">Workflow Engine</text>
  <text x="267" y="195" fill="#1a2332" font-size="13" font-weight="600" font-family="-apple-system, sans-serif">Eval & Monitor</text>
  <text x="473" y="155" fill="#1a2332" font-size="12" font-weight="600" font-family="-apple-system, sans-serif">Model</text>
  <text x="468" y="170" fill="#1a2332" font-size="12" font-weight="600" font-family="-apple-system, sans-serif">Gateway</text>
</svg>
